<?xml version="1.0" encoding="UTF-8"?>
<svg width="256" height="256" viewBox="0 0 256 256" xmlns="http://www.w3.org/2000/svg">
  <defs>
    <linearGradient id="g" x1="0" y1="0" x2="1" y2="1">
      <stop offset="0%" stop-color="#22c55e"/>
      <stop offset="100%" stop-color="#16a34a"/>
    </linearGradient>
  </defs>
  <rect x="24" y="24" width="208" height="208" rx="48" fill="url(#g)"/>
  <!-- stylized B -->
  <path fill="#071b10" d="M96 72h48c26 0 40 12 40 30c0 14-8 24-22 28c16 4 26 14 26 30c0 22-18 36-46 36H96V72zm32 48c14 0 22-6 22-16c0-10-8-16-22-16h-16v32h16zm2 64c16 0 26-8 26-20s-10-20-26-20h-18v40h18z"/>
</svg>
